<svg fill="none" height="30" viewBox="0 0 30 30" width="30" xmlns="http://www.w3.org/2000/svg"><g fill="#542ded"><path d="m11.28 24c.4437.0059.8757.1429 1.2418.3937.366.2508.6497.6042.8154 1.0158.1657.4117.206.8631.1158 1.2975-.0901.4345-.3067.8326-.6226 1.1443-.3158.3117-.7167.523-1.1524.6074-.4356.0844-.8864.0381-1.2958-.133-.40941-.1711-.75906-.4595-1.00499-.8288-.24593-.3694-.37717-.8032-.37721-1.2469-.00003-.298.05915-.5931.1741-.868.11494-.275.28336-.5244.49548-.7337s.46372-.3744.74012-.4857c.2765-.1113.5723-.1666.8703-.1626zm0-1.5c-.7429-.006-1.47088.2089-2.0915.6173-.62062.4085-1.10593.992-1.39436 1.6767-.28844.6847-.36699 1.4396-.2257 2.169s.49605 1.4004 1.01928 1.9278c.52324.5275 1.19135.8876 1.91958 1.0348.7282.1471 1.4838.0746 2.1707-.2083.687-.2829 1.2745-.7635 1.6879-1.3808.4134-.6174.6341-1.3436.6341-2.0865 0-.9894-.3909-1.9387-1.0877-2.6411s-1.6429-1.101-2.6323-1.1089z" opacity=".64"/><path d="m23.295 24c.443.0089.8735.1483 1.2375.4009.3641.2525.6455.607.8089 1.0188s.2016.8627.1097 1.2962c-.0918.4334-.3095.8301-.6259 1.1403s-.7173.5201-1.1525.6033-.8853.0361-1.2938-.1354c-.4085-.1716-.7573-.4599-1.0026-.8289-.2453-.3689-.3762-.8021-.3763-1.2452.0039-.5955.2422-1.1655.6634-1.5866.4211-.4211.9911-.6595 1.5866-.6634zm-.045-1.5c-.7417 0-1.4667.2199-2.0834.632s-1.0973.9977-1.3811 1.6829c-.2839.6853-.3581 1.4393-.2134 2.1667s.5018 1.3956 1.0263 1.9201c.5244.5244 1.1926.8816 1.92 1.0263.7274.1446 1.4814.0704 2.1667-.2134.6852-.2839 1.2709-.7645 1.6829-1.3812.4121-.6167.632-1.3417.632-2.0834.0001-.9868-.3888-1.9339-1.0824-2.6359-.6935-.7019-1.6359-1.1023-2.6226-1.1141z" opacity=".64"/><path d="m23.235 18h-12.735c-.85305-.0114-1.6763-.3157-2.33172-.8619-.65543-.5462-1.10319-1.301-1.26824-2.1381l-2.49-11.03998c-.02974-.11283-.03329-.23096-.01035-.34537.02293-.11441.07173-.22205.14266-.3147.07093-.09264.16212-.16784.26658-.21982.10446-.05199.21943-.07939.33611-.08011h21.08996c.4976-.00203.9905.09497 1.4502.28535.4597.19037.8769.47031 1.2273.82351s.627.7726.8137 1.23377c.1867.46116.2798.95487.2738 1.45237v4.49998c-.0158 1.7838-.7355 3.4891-2.0025 4.7449-1.2669 1.2557-2.9786 1.9602-4.7625 1.9601zm-17.14496-13.49998 2.28 10.18498c.0954.4998.35849.9521.74579 1.2821.38729.3301.8756.518 1.38417.5329h12.675c.697.01 1.389-.119 2.0357-.3793.6466-.2603 1.2349-.6468 1.7306-1.1369s.8888-1.074 1.1564-1.7176.4044-1.3341.4023-2.0312v-4.49998c-.0019-.29548-.0621-.58767-.177-.8599-.1148-.27224-.2822-.51917-.4926-.72671-.2103-.20754-.4594-.37162-.7332-.48287-.2737-.11125-.5667-.1675-.8622-.16552z"/><path d="m24 21.765h-10.185c-1.5355.0063-3.027-.5124-4.22739-1.4699-1.20036-.9576-2.03748-2.2966-2.37261-3.7951l-3-13.22999c-.10805-.49519-.38014-.9394-.77217-1.26065-.39204-.32125-.88106-.50072-1.38783-.50935h-1.305c-.19771-.00384-.386252-.08409-.526081-.22391-.1398285-.13983-.22007889-.328375-.223919-.526086 0-.198912.0790178-.389677.21967-.53033.140652-.1406518.331418-.21966962.53033-.21966962h1.305c.86342-.00239986 1.70079.29561862 2.36855.84296762.66777.547348 1.12434 1.309938 1.29145 2.157028l3 13.22999c.257 1.168.90617 2.2128 1.8395 2.9606.9333.7477 2.0946 1.1534 3.2905 1.1494h10.155c.1989 0 .3897.079.5303.2197.1407.1406.2197.3314.2197.5303-.0187.1857-.1058.3577-.2445.4825s-.3189.1935-.5055.1925z" opacity=".8"/></g></svg>