<svg fill="none" height="20" viewBox="0 0 20 20" width="20" xmlns="http://www.w3.org/2000/svg"><g fill="#fff"><path d="m7.52979 16c-.39557 0-.78225.1173-1.11114.3371-.3289.2197-.58525.5321-.73662.8975-.15138.3655-.19098.7676-.11381 1.1556.07717.3879.26765.7443.54735 1.024.27971.2797.63607.4702 1.02404.5474.38796.0771.79009.0375 1.15554-.1138.36546-.1514.67781-.4078.89757-.7367.21977-.3289.33707-.7155.33707-1.1111 0-.5304-.21072-1.0391-.58579-1.4142s-.88378-.5858-1.41421-.5858z" opacity=".64"/><path d="m15.54 16c-.3955 0-.7822.1173-1.1111.3371-.3289.2197-.5852.5321-.7366.8975-.1514.3655-.191.7676-.1138 1.1556.0771.3879.2676.7443.5473 1.024s.6361.4702 1.0241.5474c.3879.0771.7901.0375 1.1555-.1138.3655-.1514.6778-.4078.8976-.7367.2197-.3289.337-.7155.337-1.1111 0-.5304-.2107-1.0391-.5857-1.4142-.3751-.3751-.8838-.5858-1.4143-.5858z" opacity=".64"/><path d="m17.4999 2h-13.06004c-.12352.00428-.24108.05415-.33.14l2 8.72c0 .07 0 .13.07.2.23314.2832.5264.5108.85851.6665s.69472.2355 1.06149.2335h7.44004c1.1805-.013 2.3089-.4885 3.1428-1.3242.8338-.8358 1.3068-1.96523 1.3172-3.1458v-3c-.0027-.66131-.2672-1.29463-.7358-1.76131s-1.1029-.7287-1.7642-.72869z"/><path d="m16.14 14.79h-6.8c-1.0549.0045-2.07956-.3522-2.90366-1.0108-.8241-.6585-1.39801-1.5793-1.62634-2.6092l-2-8.82997c-.06701-.29658-.23148-.56214-.46712-.75428-.23565-.19215-.52889-.29978-.83288-.30572h-.87c-.169738 0-.332525-.06743-.452548-.18745-.1200237-.120025-.187452-.282812-.187452-.45255 0-.169739.0674283-.332525.187452-.452549.120023-.1200229.28281-.18745125.452548-.18745125h.87c.60063-.00285572 1.18414.19996225 1.65351.57473225.46937.374769.79632.898908.92649 1.485268l2 8.82997c.16636.7451.58222 1.411 1.17872 1.8875s1.33785.7349 2.10128.7325h6.8c.1697 0 .3325.0675.4525.1875.1201.12.1875.2828.1875.4525 0 .1698-.0674.3326-.1875.4526-.12.12-.2828.1874-.4525.1874z" opacity=".8"/></g></svg>