<svg fill="none" height="30" viewBox="0 0 30 30" width="30" xmlns="http://www.w3.org/2000/svg"><path d="m26.25 3h-19.58996c-.18529.00641-.36163.08123-.495.21l3 13.08c0 .105 0 .195.105.3.3497.4247.78956.7663 1.28776.9998s1.0421.3531 1.5922.3502h11.16c1.7709-.0196 3.4634-.7327 4.7142-1.9864 1.2509-1.2536 1.9602-2.9477 1.9758-4.7186v-4.5c-.0039-.99196-.4008-1.94194-1.1036-2.64196s-1.6544-1.09305-2.6464-1.09304z" fill="#542ded"/><g fill="#161359"><path d="m11.295 24c-.5933 0-1.1734.1759-1.66671.5056-.49335.3296-.87787.7982-1.10493 1.3463-.22706.5482-.28647 1.1514-.17072 1.7334.11576.5819.40148 1.1165.82104 1.536.41956.4196.95412.7053 1.53602.8211.582.1157 1.1852.0563 1.7334-.1708.5481-.227 1.0167-.6115 1.3463-1.1049.3297-.4933.5056-1.0734.5056-1.6667 0-.7956-.3161-1.5587-.8787-2.1213s-1.3257-.8787-2.1213-.8787z"/><path d="m23.31 30c1.6569 0 3-1.3431 3-3s-1.3431-3-3-3-3 1.3431-3 3 1.3431 3 3 3z"/><path d="m14.01 22.185h10.2c.2546 0 .4988-.1011.6788-.2812.1801-.18.2812-.4242.2812-.6788s-.1011-.4988-.2812-.6788c-.18-.1801-.4242-.2812-.6788-.2812h-10.2c-1.1451.0036-2.2572-.3841-3.1519-1.0988-.89477-.7147-1.51856-1.7136-1.7681-2.8312l-3-13.245c-.19357-.87201-.67735-1.65252-1.37218-2.213839-.69484-.561318-1.5596-.87021672-2.45282-.876161h-1.305c-.254608 0-.498788.101142-.678823.281177s-.281177.424215-.281177.678823c0 .25461.101142.49879.281177.67882.180035.18004.424215.28118.678823.28118h1.305c.46374-.00119.91405.15565 1.2767.44468s.61601.693.7183 1.14532l3 13.245c.34083 1.5373 1.19504 2.9127 2.42196 3.8997 1.22694.987 2.75344 1.5267 4.32804 1.5303z"/></g></svg>