<svg fill="none" height="56" viewBox="0 0 218 56" width="218" xmlns="http://www.w3.org/2000/svg"><g fill="#fff"><path d="m22.2367 42c-.923 0-1.8253.2737-2.5927.7865s-1.3656 1.2416-1.7188 2.0943-.4456 1.791-.2655 2.6963c.18.9052.6245 1.7368 1.2771 2.3894.6527.6526 1.4842 1.0971 2.3894 1.2772.9053.18 1.8436.0876 2.6963-.2656s1.5816-.9513 2.0944-1.7188c.5127-.7674.7864-1.6697.7864-2.5926 0-1.2377-.4916-2.4247-1.3668-3.2999-.8752-.8751-2.0622-1.3668-3.2998-1.3668z" opacity=".64"/><path d="m40.9267 42c-.923 0-1.8253.2737-2.5927.7865s-1.3656 1.2416-1.7188 2.0943-.4456 1.791-.2655 2.6963c.18.9052.6245 1.7368 1.2771 2.3894.6527.6526 1.4842 1.0971 2.3895 1.2772.9052.18 1.8435.0876 2.6962-.2656.8528-.3532 1.5816-.9513 2.0944-1.7188.5128-.7674.7864-1.6697.7864-2.5926 0-1.2377-.4916-2.4247-1.3668-3.2999-.8752-.8751-2.0621-1.3668-3.2998-1.3668z" opacity=".64"/><path d="m45.5 9.33301h-30.4734c-.2882.00997-.5625.12635-.77.32666l4.6667 20.34663c0 .1634 0 .3034.1633.4667.544.6607 1.2283 1.192 2.0032 1.5552.7749.3633 1.621.5494 2.4768.5448h17.36c2.7547-.0304 5.3875-1.1398 7.3332-3.0899 1.9458-1.9501 3.0492-4.5854 3.0735-7.3401v-7c-.0062-1.543-.6235-3.0208-1.7168-4.1097-1.0933-1.08893-2.5735-1.7003-4.1165-1.70029z"/><path d="m42.3267 39.1766h-15.8667c-2.4614.0104-4.8523-.8219-6.7752-2.3585-1.9229-1.5367-3.262-3.6851-3.7948-6.0882l-4.6667-20.6033c-.1563-.69204-.5401-1.31169-1.0899-1.76002-.54986-.44834-1.23408-.69949-1.9434-.71334h-2.03c-.39606 0-.77589-.15733-1.05595-.43739-.28005-.28005-.43739-.65989-.43739-1.05594 0-.39606.15734-.7759.43739-1.05595.28006-.28005.65989-.43739 1.05595-.43739h2.03c1.40146-.00666 2.763.46658 3.8582 1.34104 1.0952.87447 1.8581 2.09746 2.1618 3.46563l4.6667 20.60336c.3881 1.7385 1.3585 3.2923 2.7503 4.4041s3.1217 1.7148 4.903 1.7092h15.8667c.396 0 .7759.1573 1.0559.4374.2801.28.4374.6599.4374 1.0559 0 .3961-.1573.7759-.4374 1.056-.28.28-.6599.4374-1.0559.4374z" opacity=".8"/><path d="m78.744 24.24c-1.632 0-2.936-.504-3.912-1.512-.976-1.024-1.512-2.416-1.608-4.176l-.024-.816.024-.792c.096-1.728.632-3.104 1.608-4.128s2.28-1.536 3.912-1.536c1.76 0 3.12.56 4.08 1.68.976 1.12 1.464 2.64 1.464 4.56v.432c0 .16-.056.296-.168.408-.096.096-.224.144-.384.144h-8.328v.216c.048 1.04.368 1.928.96 2.664s1.376 1.104 2.352 1.104c.752 0 1.36-.144 1.824-.432.48-.304.84-.616 1.08-.936.144-.192.256-.304.336-.336.08-.048.216-.072.408-.072h1.056c.144 0 .264.04.36.12.112.08.168.184.168.312 0 .352-.216.776-.648 1.272s-1.048.928-1.848 1.296c-.784.352-1.688.528-2.712.528zm3.36-7.368v-.072c0-1.12-.304-2.032-.912-2.736s-1.424-1.056-2.448-1.056c-1.04 0-1.856.352-2.448 1.056s-.888 1.616-.888 2.736v.072zm9.1343 7.368c-1.712 0-3.048-.48-4.008-1.44-.96-.976-1.464-2.336-1.512-4.08l-.0241-.96.0241-.96c.048-1.744.552-3.096 1.512-4.056.96-.976 2.296-1.464 4.008-1.464 1.152 0 2.12.208 2.904.624.8.4 1.392.904 1.776 1.512.4.608.616 1.216.6479 1.824.0161.144-.0399.272-.1679.384-.112.112-.24.168-.384.168h-1.056c-.16 0-.28-.032-.36-.096-.08-.08-.16-.216-.24-.408-.288-.784-.688-1.336-1.2-1.656-.496-.336-1.128-.504-1.896-.504-1.008 0-1.808.312-2.4.936s-.912 1.576-.96 2.856l-.024.84.024.84c.048 1.28.368 2.232.96 2.856s1.392.936 2.4.936c.784 0 1.424-.16 1.92-.48.496-.336.888-.896 1.176-1.68.08-.192.16-.32.24-.384.08-.08.2-.12.36-.12h1.056c.144 0 .272.056.384.168.128.112.184.24.1679.384-.0319.592-.2479 1.192-.6479 1.8-.384.608-.976 1.12-1.776 1.536-.784.416-1.752.624-2.904.624zm12.3077 0c-1.76 0-3.12-.496-4.0804-1.488-.944-.992-1.448-2.312-1.512-3.96l-.024-1.032.024-1.032c.064-1.648.576-2.968 1.536-3.96.9764-.992 2.3284-1.488 4.0564-1.488s3.072.496 4.032 1.488c.976.992 1.496 2.312 1.56 3.96.032.352.048.696.048 1.032s-.016.68-.048 1.032c-.064 1.648-.576 2.968-1.536 3.96-.944.992-2.296 1.488-4.056 1.488zm0-1.8c1.024 0 1.832-.32 2.424-.96.608-.656.936-1.592.984-2.808.016-.16.024-.464.024-.912s-.008-.752-.024-.912c-.048-1.216-.376-2.144-.984-2.784-.592-.656-1.4-.984-2.424-.984s-1.84.328-2.448.984c-.592.64-.912 1.568-.96 2.784l-.024.912.024.912c.048 1.216.368 2.152.96 2.808.608.64 1.424.96 2.448.96zm8.262 1.56c-.16 0-.296-.048-.408-.144-.096-.112-.144-.248-.144-.408v-11.376c0-.16.048-.288.144-.384.112-.112.248-.168.408-.168h1.008c.16 0 .288.056.384.168.096.096.144.224.144.384v.816c.864-1.072 2.032-1.608 3.504-1.608 1.76 0 3.008.736 3.744 2.208.384-.672.928-1.208 1.632-1.608.72-.4 1.52-.6 2.4-.6 1.312 0 2.384.448 3.216 1.344s1.248 2.192 1.248 3.888v6.936c0 .16-.056.296-.168.408-.096.096-.224.144-.384.144h-1.032c-.16 0-.296-.048-.408-.144-.096-.112-.144-.248-.144-.408v-6.72c0-1.28-.264-2.192-.792-2.736-.528-.56-1.224-.84-2.088-.84-.768 0-1.432.288-1.992.864-.544.56-.816 1.464-.816 2.712v6.72c0 .16-.056.296-.168.408-.096.096-.224.144-.384.144h-1.056c-.16 0-.296-.048-.408-.144-.096-.112-.144-.248-.144-.408v-6.72c0-1.264-.28-2.176-.84-2.736-.544-.56-1.224-.84-2.04-.84-.768 0-1.432.28-1.992.84-.544.56-.816 1.464-.816 2.712v6.744c0 .16-.056.296-.168.408-.096.096-.224.144-.384.144zm20.345 0c-.16 0-.296-.048-.408-.144-.096-.112-.144-.248-.144-.408v-11.376c0-.16.048-.288.144-.384.112-.112.248-.168.408-.168h1.008c.16 0 .288.056.384.168.096.096.144.224.144.384v.816c.864-1.072 2.032-1.608 3.504-1.608 1.76 0 3.008.736 3.744 2.208.384-.672.928-1.208 1.632-1.608.72-.4 1.52-.6 2.4-.6 1.312 0 2.384.448 3.216 1.344s1.248 2.192 1.248 3.888v6.936c0 .16-.056.296-.168.408-.096.096-.224.144-.384.144h-1.032c-.16 0-.296-.048-.408-.144-.096-.112-.144-.248-.144-.408v-6.72c0-1.28-.264-2.192-.792-2.736-.528-.56-1.224-.84-2.088-.84-.768 0-1.432.288-1.992.864-.544.56-.816 1.464-.816 2.712v6.72c0 .16-.056.296-.168.408-.096.096-.224.144-.384.144h-1.056c-.16 0-.296-.048-.408-.144-.096-.112-.144-.248-.144-.408v-6.72c0-1.264-.28-2.176-.84-2.736-.544-.56-1.224-.84-2.04-.84-.768 0-1.432.28-1.992.84-.544.56-.816 1.464-.816 2.712v6.744c0 .16-.056.296-.168.408-.096.096-.224.144-.384.144zm24.736.24c-1.632 0-2.936-.504-3.912-1.512-.976-1.024-1.512-2.416-1.608-4.176l-.024-.816.024-.792c.096-1.728.632-3.104 1.608-4.128s2.28-1.536 3.912-1.536c1.76 0 3.12.56 4.08 1.68.976 1.12 1.464 2.64 1.464 4.56v.432c0 .16-.056.296-.168.408-.096.096-.224.144-.384.144h-8.328v.216c.048 1.04.368 1.928.96 2.664s1.376 1.104 2.352 1.104c.752 0 1.36-.144 1.824-.432.48-.304.84-.616 1.08-.936.144-.192.256-.304.336-.336.08-.048.216-.072.408-.072h1.056c.144 0 .264.04.36.12.112.08.168.184.168.312 0 .352-.216.776-.648 1.272s-1.048.928-1.848 1.296c-.784.352-1.688.528-2.712.528zm3.36-7.368v-.072c0-1.12-.304-2.032-.912-2.736s-1.424-1.056-2.448-1.056c-1.04 0-1.856.352-2.448 1.056s-.888 1.616-.888 2.736v.072zm4.695 7.128c-.16 0-.296-.048-.408-.144-.096-.112-.144-.248-.144-.408v-11.352c0-.16.048-.296.144-.408.112-.112.248-.168.408-.168h1.008c.176 0 .312.056.408.168.112.096.168.232.168.408v1.056c.656-1.088 1.768-1.632 3.336-1.632h.936c.176 0 .312.048.408.144s.144.232.144.408v.888c0 .16-.048.296-.144.408-.096.096-.232.144-.408.144h-1.368c-.88 0-1.576.256-2.088.768-.496.512-.744 1.208-.744 2.088v7.08c0 .16-.056.296-.168.408-.112.096-.248.144-.408.144zm12.269.24c-1.712 0-3.048-.48-4.008-1.44-.96-.976-1.464-2.336-1.512-4.08l-.024-.96.024-.96c.048-1.744.552-3.096 1.512-4.056.96-.976 2.296-1.464 4.008-1.464 1.152 0 2.12.208 2.904.624.8.4 1.392.904 1.776 1.512.4.608.616 1.216.648 1.824.016.144-.04.272-.168.384-.112.112-.24.168-.384.168h-1.056c-.16 0-.28-.032-.36-.096-.08-.08-.16-.216-.24-.408-.288-.784-.688-1.336-1.2-1.656-.496-.336-1.128-.504-1.896-.504-1.008 0-1.808.312-2.4.936s-.912 1.576-.96 2.856l-.024.84.024.84c.048 1.28.368 2.232.96 2.856s1.392.936 2.4.936c.784 0 1.424-.16 1.92-.48.496-.336.888-.896 1.176-1.68.08-.192.16-.32.24-.384.08-.08.2-.12.36-.12h1.056c.144 0 .272.056.384.168.128.112.184.24.168.384-.032.592-.248 1.192-.648 1.8-.384.608-.976 1.12-1.776 1.536-.784.416-1.752.624-2.904.624zm12.187 0c-1.632 0-2.936-.504-3.912-1.512-.976-1.024-1.512-2.416-1.608-4.176l-.024-.816.024-.792c.096-1.728.632-3.104 1.608-4.128s2.28-1.536 3.912-1.536c1.76 0 3.12.56 4.08 1.68.976 1.12 1.464 2.64 1.464 4.56v.432c0 .16-.056.296-.168.408-.096.096-.224.144-.384.144h-8.328v.216c.048 1.04.368 1.928.96 2.664s1.376 1.104 2.352 1.104c.752 0 1.36-.144 1.824-.432.48-.304.84-.616 1.08-.936.144-.192.256-.304.336-.336.08-.048.216-.072.408-.072h1.056c.144 0 .264.04.36.12.112.08.168.184.168.312 0 .352-.216.776-.648 1.272s-1.048.928-1.848 1.296c-.784.352-1.688.528-2.712.528zm3.36-7.368v-.072c0-1.12-.304-2.032-.912-2.736s-1.424-1.056-2.448-1.056c-1.04 0-1.856.352-2.448 1.056s-.888 1.616-.888 2.736v.072z"/><path clip-rule="evenodd" d="m177.333 32h-96.333l-9 12 9 12h91zm2.667 0-5.333 24h9.333l9-12-9-12z" fill-rule="evenodd"/></g><path d="m110.162 49c-.094 0-.173-.0327-.238-.098-.066-.0653-.098-.1447-.098-.238v-9.114c0-.1027.028-.1867.084-.252.065-.0653.149-.098.252-.098h1.288c.102 0 .186.0327.252.098.065.0653.098.1493.098.252v3.598h4.088v-3.598c0-.1027.032-.1867.098-.252.065-.0653.144-.098.238-.098h1.302c.102 0 .182.0327.238.098.065.0653.098.1493.098.252v9.114c0 .0933-.033.1727-.098.238-.056.0653-.136.098-.238.098h-1.302c-.094 0-.173-.0327-.238-.098-.066-.0653-.098-.1447-.098-.238v-3.738h-4.088v3.738c0 .0933-.033.1727-.098.238-.066.0653-.15.098-.252.098zm11.822 0c-.093 0-.173-.0327-.238-.098s-.098-.1447-.098-.238v-7.714h-2.59c-.093 0-.173-.0327-.238-.098s-.098-.1493-.098-.252v-1.05c0-.1027.028-.1867.084-.252.065-.0653.149-.098.252-.098h7.154c.103 0 .187.0327.252.098s.098.1493.098.252v1.05c0 .1027-.033.1867-.098.252s-.149.098-.252.098h-2.576v7.714c0 .0933-.033.1727-.098.238-.056.0653-.135.098-.238.098zm5.774 0c-.093 0-.172-.0327-.238-.098-.065-.0653-.098-.1447-.098-.238v-9.114c0-.1027.028-.1867.084-.252.066-.0653.15-.098.252-.098h1.134c.178 0 .318.0887.42.266l2.702 5.012 2.702-5.012c.103-.1773.243-.266.42-.266h1.12c.103 0 .187.0327.252.098.066.0653.098.1493.098.252v9.114c0 .1027-.032.1867-.098.252-.065.056-.149.084-.252.084h-1.204c-.093 0-.172-.0327-.238-.098-.065-.0653-.098-.1447-.098-.238v-6.02l-1.946 3.696c-.102.2053-.256.308-.462.308h-.588c-.196 0-.354-.1027-.476-.308l-1.946-3.696v6.02c0 .0933-.032.1727-.098.238-.056.0653-.135.098-.238.098zm10.802 0c-.094 0-.173-.0327-.238-.098-.066-.0653-.098-.1447-.098-.238v-9.128c0-.1027.032-.182.098-.238.065-.0653.144-.098.238-.098h1.316c.102 0 .182.0327.238.098.065.056.098.1353.098.238v7.784h4.438c.102 0 .186.0327.252.098.065.0653.098.1447.098.238v1.008c0 .0933-.033.1727-.098.238-.066.0653-.15.098-.252.098z" fill="#4c4c4c"/></svg>